<?xml version="1.0" standalone="no"?>
<!DOCTYPE svg PUBLIC "-//W3C//DTD SVG 1.0//EN" "http://www.w3.org/TR/2001/REC-SVG-20010904/DTD/svg10.dtd">
<svg xmlns="http://www.w3.org/2000/svg" xmlns:xlink="http://www.w3.org/1999/xlink" id="body_1" width="24" height="24">

<g transform="matrix(0.0234375 0 0 0.0234375 0 0)">
    <path d="M796.0597 128.36519C 808.15564 137.33563 819.8246 146.86661 831.02966 156.92783C 835.5952 161.17354 842.096 162.62619 848.0345 160.72768C 853.973 158.82916 858.4255 153.87479 859.6814 147.76799C 860.93726 141.6612 858.80115 135.35187 854.09375 131.264C 842.1304 120.508446 829.52277 110.21301 816.6161 100.64228C 811.6638 96.970245 805.1288 96.21912 799.4726 98.671844C 793.8164 101.12457 789.89844 106.40853 789.19446 112.533295C 788.4905 118.65806 791.1075 124.69313 796.05975 128.36517L796.05975 128.36517L796.0597 128.36519z" stroke="none" fill="#C4C4C4" fill-rule="nonzero" />
    <path d="M942.4274 234.83954C 939.13385 229.54823 933.2428 226.44434 927.0163 226.71967C 920.78973 226.99498 915.1956 230.60674 912.38196 236.16808C 909.5683 241.72942 909.9724 248.37589 913.43915 253.55537C 963.1754 330.61053 989.5731 420.40207 989.4528 512.11456C 989.4528 775.3441 775.3078 989.5006 512.0668 989.5006C 248.82574 989.5006 34.680725 775.3441 34.680725 512.11456C 34.680725 248.88501 248.82574 34.728516 512.0668 34.728516C 568.9615 34.65103 625.4087 44.780975 678.72626 64.63704C 687.6555 67.96605 697.59283 63.426155 700.9218 54.496895C 704.25085 45.567635 699.71094 35.63034 690.7817 32.301327C 455.42215 -55.411865 191.1907 40.56888 66.99594 258.88818C -57.198853 477.20752 -4.673706 753.3808 190.99496 910.86554C 386.66364 1068.3503 667.68134 1060.6305 854.40894 892.641C 1041.1365 724.6515 1078.4205 446.01132 942.42737 234.83955L942.42737 234.83955L942.4274 234.83954z" stroke="none" fill="#C4C4C4" fill-rule="nonzero" />
    <path d="M525.20355 395.7934L746.88324 497.5399L525.20355 129.29697L525.20355 395.7934zM498.14783 129.29697L276.46814 497.5399L498.14783 395.7934L498.14783 129.29697zM525.20355 657.52747L745.14624 526.5166L525.20355 425.56384L525.20355 657.52747zM498.14783 425.56387L278.20514 526.51666L498.14783 657.52747L498.14783 425.56387zM498.14783 895.5188L498.14783 703.6671L264.0906 566.8126L498.14783 895.5188zM525.20355 895.5188L759.26074 566.8126L525.20355 703.6671L525.20355 895.5188z" stroke="none" fill="#C4C4C4" fill-rule="nonzero" />
</g>
</svg>